<svg width="32" height="32" viewBox="0 0 32 32" fill="none" xmlns="http://www.w3.org/2000/svg">
<path d="M7 31.5C5.07 31.5 3.5 29.93 3.5 28V4C3.5 2.07 5.07 0.5 7 0.5H22.207L28.5 6.793V28C28.5 29.93 26.93 31.5 25 31.5H7Z" fill="#00639B"/>
<path d="M22 1L28 7V28C28 29.657 26.657 31 25 31H7C5.343 31 4 29.657 4 28V4C4 2.343 5.343 1 7 1H22ZM22.414 0H22H7C4.794 0 3 1.794 3 4V28C3 30.206 4.794 32 7 32H25C27.206 32 29 30.206 29 28V7V6.586L28.707 6.293L22.707 0.293L22.414 0Z" fill="white"/>
<path fill-rule="evenodd" clip-rule="evenodd" d="M22 1V7H28L22 1Z" fill="#004267"/>
<path d="M19 13.025V9H9V19H13.025C13.278 21.803 15.631 24 18.5 24C21.538 24 24 21.538 24 18.5C24 15.631 21.803 13.278 19 13.025ZM10 10H18V13.025C15.362 13.263 13.263 15.362 13.025 18H10V10ZM18 14.051V18H14.051C14.284 15.923 15.923 14.284 18 14.051ZM18.5 23C16.19 23 14.303 21.244 14.051 19H19V14.051C21.244 14.303 23 16.19 23 18.5C23 20.981 20.981 23 18.5 23Z" fill="#004267"/>
<path d="M19 12.025V8H9V18H13.025C13.278 20.803 15.631 23 18.5 23C21.538 23 24 20.538 24 17.5C24 14.631 21.803 12.278 19 12.025ZM10 9H18V12.025C15.362 12.263 13.263 14.362 13.025 17H10V9ZM18 13.051V17H14.051C14.284 14.923 15.923 13.284 18 13.051ZM18.5 22C16.19 22 14.303 20.244 14.051 18H19V13.051C21.244 13.303 23 15.19 23 17.5C23 19.981 20.981 22 18.5 22Z" fill="white"/>
</svg>
